<svg xmlns="http://www.w3.org/2000/svg" width="32" height="32" fill="none"><g clip-path="url(#a)"><circle cx="16" cy="16" r="16" fill="#fff"/><path fill="#004D4D" d="M15.996 7.8c2.671 0 2.988.012 4.038.06.977.042 1.504.206 1.856.343.464.18.8.398 1.148.746.351.351.566.683.746 1.148.137.352.3.883.344 1.855.046 1.055.058 1.371.058 4.039 0 2.672-.012 2.988-.058 4.038-.043.977-.207 1.504-.344 1.856-.18.464-.398.8-.746 1.148a3.076 3.076 0 0 1-1.148.746c-.352.137-.883.3-1.856.344-1.054.047-1.37.058-4.038.058-2.672 0-2.988-.011-4.039-.058-.976-.043-1.504-.207-1.855-.344-.465-.18-.8-.398-1.148-.746a3.075 3.075 0 0 1-.746-1.148c-.137-.352-.301-.883-.344-1.856-.047-1.054-.059-1.37-.059-4.038 0-2.672.012-2.988.059-4.039.043-.976.207-1.503.344-1.855.18-.465.398-.8.746-1.148a3.075 3.075 0 0 1 1.148-.746c.351-.137.883-.3 1.855-.344 1.05-.047 1.367-.058 4.039-.058Zm0-1.8c-2.715 0-3.055.012-4.12.059-1.063.046-1.793.218-2.426.464A4.88 4.88 0 0 0 7.677 7.68 4.9 4.9 0 0 0 6.52 9.45c-.246.636-.417 1.363-.464 2.425-.047 1.07-.059 1.41-.059 4.125 0 2.714.012 3.054.059 4.12.047 1.063.218 1.793.464 2.426a4.88 4.88 0 0 0 1.157 1.773 4.888 4.888 0 0 0 1.769 1.152c.636.246 1.363.418 2.425.465 1.067.047 1.406.059 4.12.059 2.715 0 3.055-.012 4.122-.059 1.062-.047 1.792-.219 2.425-.465a4.889 4.889 0 0 0 1.77-1.152 4.888 4.888 0 0 0 1.151-1.77c.247-.636.418-1.362.465-2.425.047-1.066.059-1.406.059-4.12 0-2.715-.012-3.055-.059-4.12-.047-1.063-.218-1.794-.465-2.426a4.684 4.684 0 0 0-1.144-1.778 4.888 4.888 0 0 0-1.77-1.152c-.636-.246-1.362-.418-2.425-.465C19.05 6.012 18.71 6 15.996 6Z"/><path fill="#004D4D" d="M15.995 10.863a5.137 5.137 0 0 0 0 10.272c2.836 0 5.136-2.3 5.136-5.136 0-2.836-2.3-5.136-5.136-5.136Zm0 8.467a3.332 3.332 0 1 1 .001-6.664 3.332 3.332 0 0 1 0 6.664ZM22.534 10.66a1.2 1.2 0 1 1-2.398 0 1.2 1.2 0 0 1 2.398 0Z"/></g><defs><clipPath id="a"><path fill="#fff" d="M0 0h32v32H0z"/></clipPath></defs></svg>