<svg xmlns="http://www.w3.org/2000/svg" width="32" height="32" fill="none"><g clip-path="url(#a)"><circle cx="16.031" cy="16" r="16" fill="#fff"/><path fill="#004D4D" d="M26.143 10.887a2.652 2.652 0 0 0-1.866-1.878c-1.65-.444-8.246-.444-8.246-.444s-6.595 0-8.245.444a2.653 2.653 0 0 0-1.866 1.878C5.479 12.544 5.479 16 5.479 16s0 3.456.44 5.113a2.652 2.652 0 0 0 1.867 1.878c1.65.444 8.245.444 8.245.444s6.596 0 8.246-.444a2.652 2.652 0 0 0 1.866-1.878c.441-1.657.441-5.113.441-5.113s0-3.456-.441-5.113Z"/><path fill="#fff" d="M13.873 19.138v-6.276L19.39 16l-5.517 3.138Z"/></g><defs><clipPath id="a"><path fill="#fff" d="M0 0h32v32H0z"/></clipPath></defs></svg>